<?xml version="1.0" encoding="utf-8"?>
<svg id="master-artboard" viewBox="0 0 464.4019470214844 314.0668640136719" version="1.1" xmlns="http://www.w3.org/2000/svg" x="0px" y="0px" width="464.4019470214844px" height="314.0668640136719px" enable-background="new 0 0 2340 1560"><rect id="ee-background" x="0" y="0" width="464.4019470214844" height="314.0668640136719" style="fill: rgb(15, 24, 84); fill-opacity: 0; pointer-events: none;"/><defs><style id="ee-google-fonts">@import url(https://fonts.googleapis.com/css?family=Aldrich:400|Anaheim:400);</style></defs>
<metadata><!--?xpacket begin="﻿" id="W5M0MpCehiHzreSzNTczkc9d"?-->

                                                                                                    
                                                                                                    
                                                                                                    
                                                                                                    
                                                                                                    
                                                                                                    
                                                                                                    
                                                                                                    
                                                                                                    
                                                                                                    
                                                                                                    
                                                                                                    
                                                                                                    
                                                                                                    
                                                                                                    
                                                                                                    
                                                                                                    
                                                                                                    
                                                                                                    
                                                                                                    
                           
<!--?xpacket end="w"?-->
	</metadata>

<g transform="matrix(1, 0, 0, 1, 78.46890234947205, -91.86603546142578)"><g transform="matrix(0.685019159843764, 0, 0, 0.685019159843764, -564.3647026556484, -397.7374568724746)">
	
	
	
	
	
	
	
	
	
	
	
	
	
	
<path d="M 876.973876953125 921.8900146484375 L 901.0538330078125 921.8900146484375 L 901.0538330078125 926.2000122070312 L 891.163818359375 926.2000122070312 L 891.163818359375 952 L 886.8638305664062 952 L 886.8638305664062 926.2000122070312 L 876.973876953125 926.2000122070312 L 876.973876953125 921.8900146484375 ZM 927.4202880859375 952 L 923.2903442382812 952 L 923.2903442382812 933.780029296875 L 911.7603149414062 933.780029296875 L 911.7603149414062 952 L 907.6403198242188 952 L 907.6403198242188 921.030029296875 L 911.7603149414062 921.030029296875 L 911.7603149414062 933.5900268554688 C 911.7869873046875 933.0433349609375 911.9136352539062 932.5266723632812 912.1403198242188 932.0399780273438 C 912.3602905273438 931.5599975585938 912.656982421875 931.1400146484375 913.0303344726562 930.780029296875 C 913.4036254882812 930.4266357421875 913.8336791992188 930.1466674804688 914.3203125 929.9400024414062 C 914.8070068359375 929.739990234375 915.330322265625 929.6400146484375 915.8903198242188 929.6400146484375 L 923.2903442382812 929.6400146484375 C 923.8636474609375 929.6400146484375 924.4003295898438 929.7466430664062 924.9003295898438 929.9600219726562 C 925.406982421875 930.1799926757812 925.8436279296875 930.4766845703125 926.2103271484375 930.8499755859375 C 926.5836791992188 931.2166748046875 926.8803100585938 931.6533203125 927.100341796875 932.1599731445312 C 927.3136596679688 932.6599731445312 927.4202880859375 933.2000122070312 927.4202880859375 933.780029296875 L 927.4202880859375 952 ZM 955.1104736328125 942.9299926757812 L 940.3104858398438 942.9299926757812 L 940.3104858398438 947.8599853515625 L 955.1104736328125 947.8599853515625 L 955.1104736328125 952 L 940.3104858398438 952 C 939.75048828125 952 939.2171630859375 951.8900146484375 938.7105102539062 951.6699829101562 C 938.2105102539062 951.4566650390625 937.7738037109375 951.163330078125 937.4005126953125 950.7899780273438 C 937.0271606445312 950.42333984375 936.7338256835938 949.9866943359375 936.5205078125 949.47998046875 C 936.3004760742188 948.9733276367188 936.1904907226562 948.433349609375 936.1904907226562 947.8599853515625 L 936.1904907226562 933.780029296875 C 936.1904907226562 933.2000122070312 936.3004760742188 932.6599731445312 936.5205078125 932.1599731445312 C 936.7338256835938 931.6533203125 937.0271606445312 931.2166748046875 937.4005126953125 930.8499755859375 C 937.7738037109375 930.4766845703125 938.2105102539062 930.1799926757812 938.7105102539062 929.9600219726562 C 939.2171630859375 929.7466430664062 939.75048828125 929.6400146484375 940.3104858398438 929.6400146484375 L 950.970458984375 929.6400146484375 C 951.5504760742188 929.6400146484375 952.0905151367188 929.7466430664062 952.5905151367188 929.9600219726562 C 953.09716796875 930.1799926757812 953.5338134765625 930.4766845703125 953.9005126953125 930.8499755859375 C 954.2738037109375 931.2166748046875 954.5704956054688 931.6533203125 954.7904663085938 932.1599731445312 C 955.0038452148438 932.6599731445312 955.1104736328125 933.2000122070312 955.1104736328125 933.780029296875 L 955.1104736328125 942.9299926757812 M 940.3104858398438 933.780029296875 L 940.3104858398438 938.7899780273438 L 950.970458984375 938.7899780273438 L 950.970458984375 933.780029296875 L 940.3104858398438 933.780029296875 ZM 979.0428466796875 926.2000122070312 C 979.0428466796875 925.606689453125 979.1561889648438 925.0499877929688 979.3828735351562 924.530029296875 C 979.6095581054688 924.0033569335938 979.9161987304688 923.5466918945312 980.3028564453125 923.1599731445312 C 980.6961669921875 922.7733154296875 981.1561889648438 922.4666748046875 981.682861328125 922.239990234375 C 982.2095336914062 922.0066528320312 982.7661743164062 921.8900146484375 983.3528442382812 921.8900146484375 L 999.682861328125 921.8900146484375 C 1000.26953125 921.8900146484375 1000.826171875 922.0066528320312 1001.3528442382812 922.239990234375 C 1001.8795166015625 922.4666748046875 1002.3395385742188 922.7733154296875 1002.7328491210938 923.1599731445312 C 1003.1195068359375 923.5466918945312 1003.4262084960938 924.0033569335938 1003.65283203125 924.530029296875 C 1003.8795166015625 925.0499877929688 1003.9928588867188 925.606689453125 1003.9928588867188 926.2000122070312 L 1003.9928588867188 930.0800170898438 L 999.682861328125 930.0800170898438 L 999.682861328125 926.2000122070312 L 983.3528442382812 926.2000122070312 L 983.3528442382812 947.7000122070312 L 999.682861328125 947.7000122070312 L 999.682861328125 943.8300170898438 L 1003.9928588867188 943.8300170898438 L 1003.9928588867188 947.7000122070312 C 1003.9928588867188 948.2866821289062 1003.8795166015625 948.8400268554688 1003.65283203125 949.3599853515625 C 1003.4262084960938 949.8866577148438 1003.1195068359375 950.3466796875 1002.7328491210938 950.739990234375 C 1002.3395385742188 951.1333618164062 1001.8795166015625 951.4400024414062 1001.3528442382812 951.6599731445312 C 1000.826171875 951.8866577148438 1000.26953125 952 999.682861328125 952 L 983.3528442382812 952 C 982.7661743164062 952 982.2095336914062 951.8866577148438 981.682861328125 951.6599731445312 C 981.1561889648438 951.4400024414062 980.6961669921875 951.1333618164062 980.3028564453125 950.739990234375 C 979.9161987304688 950.3466796875 979.6095581054688 949.8866577148438 979.3828735351562 949.3599853515625 C 979.1561889648438 948.8400268554688 979.0428466796875 948.2866821289062 979.0428466796875 947.7000122070312 L 979.0428466796875 926.2000122070312 ZM 1031.664306640625 947.8599853515625 C 1031.664306640625 948.433349609375 1031.5576171875 948.9733276367188 1031.34423828125 949.47998046875 C 1031.124267578125 949.9866943359375 1030.82763671875 950.42333984375 1030.4542236328125 950.7899780273438 C 1030.087646484375 951.163330078125 1029.654296875 951.4566650390625 1029.154296875 951.6699829101562 C 1028.660888671875 951.8900146484375 1028.1275634765625 952 1027.5543212890625 952 L 1016.4442749023438 952 C 1015.88427734375 952 1015.3509521484375 951.8900146484375 1014.8442993164062 951.6699829101562 C 1014.3442993164062 951.4566650390625 1013.9075927734375 951.163330078125 1013.5343017578125 950.7899780273438 C 1013.1609497070312 950.42333984375 1012.8676147460938 949.9866943359375 1012.654296875 949.47998046875 C 1012.4342651367188 948.9733276367188 1012.3242797851562 948.433349609375 1012.3242797851562 947.8599853515625 L 1012.3242797851562 933.780029296875 C 1012.3242797851562 933.2000122070312 1012.4342651367188 932.6599731445312 1012.654296875 932.1599731445312 C 1012.8676147460938 931.6533203125 1013.1609497070312 931.2166748046875 1013.5343017578125 930.8499755859375 C 1013.9075927734375 930.4766845703125 1014.3442993164062 930.1799926757812 1014.8442993164062 929.9600219726562 C 1015.3509521484375 929.7466430664062 1015.88427734375 929.6400146484375 1016.4442749023438 929.6400146484375 L 1027.5543212890625 929.6400146484375 C 1028.1275634765625 929.6400146484375 1028.660888671875 929.7466430664062 1029.154296875 929.9600219726562 C 1029.654296875 930.1799926757812 1030.087646484375 930.4766845703125 1030.4542236328125 930.8499755859375 C 1030.82763671875 931.2166748046875 1031.124267578125 931.6533203125 1031.34423828125 932.1599731445312 C 1031.5576171875 932.6599731445312 1031.664306640625 933.2000122070312 1031.664306640625 933.780029296875 L 1031.664306640625 947.8599853515625 M 1016.4442749023438 933.780029296875 L 1016.4442749023438 947.8599853515625 L 1027.5543212890625 947.8599853515625 L 1027.5543212890625 933.780029296875 L 1016.4442749023438 933.780029296875 ZM 1040.3941650390625 933.780029296875 C 1040.3941650390625 933.2000122070312 1040.5042724609375 932.6599731445312 1040.7242431640625 932.1599731445312 C 1040.9375 931.6533203125 1041.2308349609375 931.2166748046875 1041.604248046875 930.8499755859375 C 1041.9775390625 930.4766845703125 1042.4141845703125 930.1799926757812 1042.9141845703125 929.9600219726562 C 1043.4208984375 929.7466430664062 1043.9542236328125 929.6400146484375 1044.5142822265625 929.6400146484375 L 1056.044189453125 929.6400146484375 L 1056.044189453125 921.030029296875 L 1060.1741943359375 921.030029296875 L 1060.1741943359375 952 L 1056.044189453125 952 L 1056.044189453125 948.219970703125 C 1055.99755859375 948.739990234375 1055.8575439453125 949.22998046875 1055.624267578125 949.6900024414062 C 1055.38427734375 950.1500244140625 1055.0775146484375 950.5533447265625 1054.7042236328125 950.9000244140625 C 1054.3375244140625 951.239990234375 1053.9141845703125 951.510009765625 1053.4342041015625 951.7100219726562 C 1052.9609375 951.9033203125 1052.45751953125 952 1051.9241943359375 952 L 1044.5142822265625 952 C 1043.9542236328125 952 1043.4208984375 951.8900146484375 1042.9141845703125 951.6699829101562 C 1042.4141845703125 951.4566650390625 1041.9775390625 951.163330078125 1041.604248046875 950.7899780273438 C 1041.2308349609375 950.42333984375 1040.9375 949.9866943359375 1040.7242431640625 949.47998046875 C 1040.5042724609375 948.9733276367188 1040.3941650390625 948.433349609375 1040.3941650390625 947.8599853515625 L 1040.3941650390625 933.780029296875 M 1044.5142822265625 947.8599853515625 L 1056.044189453125 947.8599853515625 L 1056.044189453125 933.780029296875 L 1044.5142822265625 933.780029296875 L 1044.5142822265625 947.8599853515625 ZM 1087.8643798828125 942.9299926757812 L 1073.064453125 942.9299926757812 L 1073.064453125 947.8599853515625 L 1087.8643798828125 947.8599853515625 L 1087.8643798828125 952 L 1073.064453125 952 C 1072.50439453125 952 1071.9710693359375 951.8900146484375 1071.46435546875 951.6699829101562 C 1070.96435546875 951.4566650390625 1070.5277099609375 951.163330078125 1070.1544189453125 950.7899780273438 C 1069.781005859375 950.42333984375 1069.4876708984375 949.9866943359375 1069.2744140625 949.47998046875 C 1069.054443359375 948.9733276367188 1068.9443359375 948.433349609375 1068.9443359375 947.8599853515625 L 1068.9443359375 933.780029296875 C 1068.9443359375 933.2000122070312 1069.054443359375 932.6599731445312 1069.2744140625 932.1599731445312 C 1069.4876708984375 931.6533203125 1069.781005859375 931.2166748046875 1070.1544189453125 930.8499755859375 C 1070.5277099609375 930.4766845703125 1070.96435546875 930.1799926757812 1071.46435546875 929.9600219726562 C 1071.9710693359375 929.7466430664062 1072.50439453125 929.6400146484375 1073.064453125 929.6400146484375 L 1083.724365234375 929.6400146484375 C 1084.304443359375 929.6400146484375 1084.8443603515625 929.7466430664062 1085.3443603515625 929.9600219726562 C 1085.85107421875 930.1799926757812 1086.2877197265625 930.4766845703125 1086.6544189453125 930.8499755859375 C 1087.0277099609375 931.2166748046875 1087.3243408203125 931.6533203125 1087.54443359375 932.1599731445312 C 1087.7576904296875 932.6599731445312 1087.8643798828125 933.2000122070312 1087.8643798828125 933.780029296875 L 1087.8643798828125 942.9299926757812 M 1073.064453125 933.780029296875 L 1073.064453125 938.7899780273438 L 1083.724365234375 938.7899780273438 L 1083.724365234375 933.780029296875 L 1073.064453125 933.780029296875 ZM 1137.646728515625 921.8900146484375 L 1137.646728515625 952 L 1133.3468017578125 952 L 1133.3468017578125 939.1099853515625 L 1116.1068115234375 939.1099853515625 L 1116.1068115234375 952 L 1111.7967529296875 952 L 1111.7967529296875 921.8900146484375 L 1116.1068115234375 921.8900146484375 L 1116.1068115234375 934.7999877929688 L 1133.3468017578125 934.7999877929688 L 1133.3468017578125 921.8900146484375 L 1137.646728515625 921.8900146484375 ZM 1146.8243408203125 929.6400146484375 L 1150.9444580078125 929.6400146484375 L 1150.9444580078125 947.8599853515625 L 1162.474365234375 947.8599853515625 L 1162.474365234375 929.6400146484375 L 1166.6043701171875 929.6400146484375 L 1166.6043701171875 952 L 1162.474365234375 952 L 1162.474365234375 948.219970703125 C 1162.427734375 948.739990234375 1162.2877197265625 949.22998046875 1162.054443359375 949.6900024414062 C 1161.814453125 950.1500244140625 1161.5076904296875 950.5533447265625 1161.1343994140625 950.9000244140625 C 1160.7677001953125 951.239990234375 1160.3443603515625 951.510009765625 1159.8643798828125 951.7100219726562 C 1159.39111328125 951.9033203125 1158.8876953125 952 1158.3543701171875 952 L 1150.9444580078125 952 C 1150.3843994140625 952 1149.85107421875 951.8900146484375 1149.3443603515625 951.6699829101562 C 1148.8443603515625 951.4566650390625 1148.40771484375 951.163330078125 1148.034423828125 950.7899780273438 C 1147.6610107421875 950.42333984375 1147.36767578125 949.9866943359375 1147.1544189453125 949.47998046875 C 1146.9344482421875 948.9733276367188 1146.8243408203125 948.433349609375 1146.8243408203125 947.8599853515625 L 1146.8243408203125 929.6400146484375 ZM 1195.1109619140625 947.8599853515625 C 1195.1109619140625 948.433349609375 1195.0042724609375 948.9733276367188 1194.791015625 949.47998046875 C 1194.571044921875 949.9866943359375 1194.2742919921875 950.42333984375 1193.9010009765625 950.7899780273438 C 1193.5343017578125 951.163330078125 1193.09765625 951.4566650390625 1192.5909423828125 951.6699829101562 C 1192.0909423828125 951.8900146484375 1191.5543212890625 952 1190.98095703125 952 L 1179.4510498046875 952 C 1178.8909912109375 952 1178.357666015625 951.8900146484375 1177.8509521484375 951.6699829101562 C 1177.3509521484375 951.4566650390625 1176.914306640625 951.163330078125 1176.541015625 950.7899780273438 C 1176.1676025390625 950.42333984375 1175.874267578125 949.9866943359375 1175.6610107421875 949.47998046875 C 1175.4410400390625 948.9733276367188 1175.3309326171875 948.433349609375 1175.3309326171875 947.8599853515625 L 1175.3309326171875 921.030029296875 L 1179.4510498046875 921.030029296875 L 1179.4510498046875 933.5900268554688 C 1179.4776611328125 933.0433349609375 1179.6043701171875 932.5266723632812 1179.8309326171875 932.0399780273438 C 1180.051025390625 931.5599975585938 1180.34765625 931.1400146484375 1180.720947265625 930.780029296875 C 1181.0943603515625 930.4266357421875 1181.5242919921875 930.1466674804688 1182.010986328125 929.9400024414062 C 1182.4976806640625 929.739990234375 1183.02099609375 929.6400146484375 1183.5809326171875 929.6400146484375 L 1190.98095703125 929.6400146484375 C 1191.5543212890625 929.6400146484375 1192.0909423828125 929.7466430664062 1192.5909423828125 929.9600219726562 C 1193.09765625 930.1799926757812 1193.5343017578125 930.4766845703125 1193.9010009765625 930.8499755859375 C 1194.2742919921875 931.2166748046875 1194.571044921875 931.6533203125 1194.791015625 932.1599731445312 C 1195.0042724609375 932.6599731445312 1195.1109619140625 933.2000122070312 1195.1109619140625 933.780029296875 L 1195.1109619140625 947.8599853515625 M 1179.4510498046875 933.780029296875 L 1179.4510498046875 947.8599853515625 L 1190.98095703125 947.8599853515625 L 1190.98095703125 933.780029296875 L 1179.4510498046875 933.780029296875 Z" transform="matrix(1, 0, 0, 1, 0, 0)" style="fill: rgb(255, 255, 255); white-space: pre; color: rgb(51, 51, 51);"/></g><g transform="matrix(0.720460137780303, 0, 0, 0.720460137780303, -316.03332187660243, -444.9816216835439)">
	
	
	
	
	
	
	
	
	
	
	
	
	
	
<path d="M 880.5838012695312 939.489990234375 L 894.0437622070312 948.8499755859375 L 892.893798828125 950.719970703125 L 877.9638061523438 940.1799926757812 L 877.9638061523438 938.7899780273438 L 892.893798828125 928.5700073242188 L 894.0838012695312 930.3699951171875 L 880.5838012695312 939.489990234375 ZM 915.6993408203125 921.3900146484375 L 902.3893432617188 954.5399780273438 L 900.7293701171875 953.760009765625 L 913.9993286132812 920.5700073242188 L 915.6993408203125 921.3900146484375 ZM 935.4043579101562 939.489990234375 L 921.8843383789062 930.3699951171875 L 923.0643310546875 928.5700073242188 L 938.0343627929688 938.7899780273438 L 938.0343627929688 940.1799926757812 L 923.0643310546875 950.719970703125 L 921.8843383789062 948.8499755859375 L 935.4043579101562 939.489990234375 Z" transform="matrix(1.9817380905151367, 0, 0, 1.9817380905151367, -1152.52490234375, -1011.1697387695312)" style="fill: rgb(255, 255, 255); white-space: pre; color: rgb(255, 255, 255);"/></g></g>
<linearGradient id="SVGID_1_" gradientUnits="userSpaceOnUse" x1="1170" y1="845.8359" x2="1170" y2="560.4071">
	<stop offset="0" style="stop-color:#00B6ED"/>
	<stop offset="1" style="stop-color:#2273B9"/>
</linearGradient>

</svg>