<?xml version="1.0" encoding="utf-8"?>
<svg id="master-artboard" viewBox="0 0 234.8892822265625 269.58233642578125" version="1.1" xmlns="http://www.w3.org/2000/svg" x="0px" y="0px" width="234.8892822265625px" height="269.58233642578125px" enable-background="new 0 0 2800 1960"><rect id="ee-background" x="0" y="0" width="234.8892822265625" height="269.58233642578125" style="fill: white; fill-opacity: 0; pointer-events: none;"/>


<g transform="matrix(1, 0, 0, 1, -294.8402862548828, -159.70516204833984)">
	
	
	<g transform="matrix(0.3096837273609146, 0, 0, 0.3096837273609146, 199.9033780367822, 158.08243696774096)">
		<path d="M 1598.100021 983.799988 A 202.699997 202.699997 0 0 1 1395.400024 1186.499985 A 202.699997 202.699997 0 0 1 1192.700027 983.799988 A 202.699997 202.699997 0 0 1 1395.400024 781.099991 A 202.699997 202.699997 0 0 1 1598.100021 983.799988 Z" fill="#81D4F7"/>
		<path fill="#A5DFF9" d="M1567.7,983.8c0,95.2-77.2,172.4-172.4,172.4c-95.2,0-172.4-77.2-172.4-172.4&#10;&#9;&#9;&#9;c0-95.2,77.2-172.4,172.4-172.4C1490.6,811.4,1567.7,888.6,1567.7,983.8z"/>
		<path fill="#C1E7FA" d="M1394.1,811.4c-95.2,0-172.4,77.2-172.4,172.4c0,95.2,77.2,172.4,172.4,172.4V811.4z"/>
	</g>
	<g transform="matrix(0.3096837273609146, 0, 0, 0.3096837273609146, 199.9033780367822, 158.08243696774096)">
		
			<path d="M 1331.099951 944.799988 A 21.4 21.4 0 0 1 1309.699951 966.199987 A 21.4 21.4 0 0 1 1288.299952 944.799988 A 21.4 21.4 0 0 1 1309.699951 923.399988 A 21.4 21.4 0 0 1 1331.099951 944.799988 Z" fill="#00AEEF" stroke="#00AEEF" stroke-width="7.0866" stroke-linejoin="round" stroke-miterlimit="10"/>
		<path fill="#FFFFFF" stroke="#00AEEF" stroke-width="7.0866" stroke-linejoin="round" stroke-miterlimit="10" d="M1314.8,975.5&#10;&#9;&#9;&#9;l-5.1,9.5l-5.1-9.5c-18.4,2.5-32.6,18.3-32.6,37.3v28.4h75.3v-28.4C1347.4,993.7,1333.2,978,1314.8,975.5z"/>
		
			<path d="M 1418.200048 944.799988 A 21.4 21.4 0 0 1 1396.800049 966.199987 A 21.4 21.4 0 0 1 1375.400049 944.799988 A 21.4 21.4 0 0 1 1396.800049 923.399988 A 21.4 21.4 0 0 1 1418.200048 944.799988 Z" fill="#00AEEF" stroke="#00AEEF" stroke-width="7.0866" stroke-linejoin="round" stroke-miterlimit="10"/>
		<path fill="#FFFFFF" stroke="#00AEEF" stroke-width="7.0866" stroke-linejoin="round" stroke-miterlimit="10" d="M1401.9,975.5&#10;&#9;&#9;&#9;l-5.1,9.5l-5.1-9.5c-18.4,2.5-32.6,18.3-32.6,37.3v28.4h75.3v-28.4C1434.5,993.7,1420.3,978,1401.9,975.5z"/>
		
			<path d="M 1502.4 944.799988 A 21.4 21.4 0 0 1 1481 966.199987 A 21.4 21.4 0 0 1 1459.6 944.799988 A 21.4 21.4 0 0 1 1481 923.399988 A 21.4 21.4 0 0 1 1502.4 944.799988 Z" fill="#00AEEF" stroke="#00AEEF" stroke-width="7.0866" stroke-linejoin="round" stroke-miterlimit="10"/>
		<path fill="#FFFFFF" stroke="#00AEEF" stroke-width="7.0866" stroke-linejoin="round" stroke-miterlimit="10" d="M1486.1,975.5&#10;&#9;&#9;&#9;l-5.1,9.5l-5.1-9.5c-18.4,2.5-32.6,18.3-32.6,37.3v28.4h75.3v-28.4C1518.7,993.7,1504.5,978,1486.1,975.5z"/>
		<path fill="#FFFFFF" stroke="#00AEEF" stroke-width="7.0866" stroke-linejoin="round" stroke-miterlimit="10" d="M1396.8,984.9&#10;&#9;&#9;&#9;l-5.1-9.5c-18.4,2.5-32.6,18.3-32.6,37.3v28.4h37.7V984.9z"/>
		<path fill="#FFFFFF" stroke="#00AEEF" stroke-width="7.0866" stroke-linejoin="round" stroke-miterlimit="10" d="M1309.7,984.9&#10;&#9;&#9;&#9;l-5.1-9.5c-18.4,2.5-32.6,18.3-32.6,37.3v28.4h37.7V984.9z"/>
		<path fill="#FFFFFF" stroke="#00AEEF" stroke-width="7.0866" stroke-linejoin="round" stroke-miterlimit="10" d="M1481,984.9&#10;&#9;&#9;&#9;l-5.1-9.5c-18.4,2.5-32.6,18.3-32.6,37.3v28.4h37.7V984.9z"/>
	</g>
	
	<g transform="matrix(0.3096837273609146, 0, 0, 0.3096837273609146, 199.9033780367822, 158.08243696774096)">
		<path d="M 2300.099899 1528.300049 A 202.699997 202.699997 0 0 1 2097.399902 1731.000046 A 202.699997 202.699997 0 0 1 1894.699905 1528.300049 A 202.699997 202.699997 0 0 1 2097.399902 1325.600052 A 202.699997 202.699997 0 0 1 2300.099899 1528.300049 Z" fill="#81D4F7"/>
		<path fill="#A5DFF9" d="M2269.8,1528.3c0,95.2-77.2,172.4-172.4,172.4s-172.4-77.2-172.4-172.4c0-95.2,77.2-172.4,172.4-172.4&#10;&#9;&#9;&#9;S2269.8,1433.1,2269.8,1528.3z"/>
		<path fill="#C1E7FA" d="M2096.1,1356c-95.2,0-172.4,77.2-172.4,172.4c0,95.2,77.2,172.4,172.4,172.4V1356z"/>
	</g>
	<g transform="matrix(0.3096837273609146, 0, 0, 0.3096837273609146, 199.9033780367822, 158.08243696774096)">
		<path fill="none" stroke="#00AEEF" stroke-width="8.7901" stroke-linejoin="round" stroke-miterlimit="10" d="M2137.7,1456.8&#10;&#9;&#9;&#9;c0,19-15.4,34.5-34.5,34.5c-19,0-34.5-15.4-34.5-34.5c0-19,15.4-34.5,34.5-34.5C2122.3,1422.4,2137.7,1437.8,2137.7,1456.8z"/>
		<path fill="#FFFFFF" stroke="#00AEEF" stroke-width="8.7901" stroke-linejoin="round" stroke-miterlimit="10" d="M2196,1474.5&#10;&#9;&#9;&#9;c0-8.9-7.2-16.1-16.1-16.1s-155.8,0-164.7,0c-8.9,0-16.1,7.2-16.1,16.1c0,7.5-0.2,101.8-0.2,109.4c0,8.9,7.2,16.1,16.1,16.1&#10;&#9;&#9;&#9;s155.8,0,164.7,0c8.9,0,16.1-7.2,16.1-16.1C2195.7,1576.9,2196,1481.5,2196,1474.5z"/>
		<path fill="#FFFFFF" stroke="#00AEEF" stroke-width="8.7901" stroke-linejoin="round" stroke-miterlimit="10" d="M2202.7,1529.1&#10;&#9;&#9;&#9;c0.1-27.4,0.1-54.7,0.1-58.5c0-9.5-7.7-17.2-17.2-17.2c-9.5,0-166.7,0-176.2,0c-9.5,0-17.2,7.7-17.2,17.2c0,4-0.1,31.2-0.1,58.5&#10;&#9;&#9;&#9;H2202.7z"/>
		
			<path d="M 2098.5 1453.400024 H 2107.9 V 1552.300026 H 2098.5 V 1453.400024 Z" fill="#00AEEF" stroke="#00AEEF" stroke-width="8.7901" stroke-linejoin="round" stroke-miterlimit="10"/>
		
			<path d="M 2115.800049 1549.300049 A 12.5 12.5 0 0 1 2103.300049 1561.800049 A 12.5 12.5 0 0 1 2090.800049 1549.300049 A 12.5 12.5 0 0 1 2103.300049 1536.800049 A 12.5 12.5 0 0 1 2115.800049 1549.300049 Z" fill="#00AEEF" stroke="#00AEEF" stroke-width="8.7901" stroke-linejoin="round" stroke-miterlimit="10"/>
	</g>
	<g transform="matrix(0.3096837273609146, 0, 0, 0.3096837273609146, 199.9033780367822, 158.08243696774096)">
		<path d="M 905.299973 1528.300049 A 202.699997 202.699997 0 0 1 702.599976 1731.000046 A 202.699997 202.699997 0 0 1 499.899979 1528.300049 A 202.699997 202.699997 0 0 1 702.599976 1325.600052 A 202.699997 202.699997 0 0 1 905.299973 1528.300049 Z" fill="#81D4F7"/>
		<path fill="#A5DFF9" d="M874.9,1528.3c0,95.2-77.2,172.4-172.4,172.4s-172.4-77.2-172.4-172.4c0-95.2,77.2-172.4,172.4-172.4&#10;&#9;&#9;&#9;S874.9,1433.1,874.9,1528.3z"/>
		<path fill="#C1E7FA" d="M701.2,1355.9c-95.2,0-172.4,77.2-172.4,172.4c0,95.2,77.2,172.4,172.4,172.4V1355.9z"/>
	</g>
	<g transform="matrix(0.3096837273609146, 0, 0, 0.3096837273609146, 199.9033780367822, 158.08243696774096)">
		
			<path d="M 619.400024 1422.699951 H 785.700027 V 1633.799957 H 619.400024 V 1422.699951 Z" fill="#FFFFFF" stroke="#00AEEF" stroke-width="9.4489" stroke-linejoin="round" stroke-miterlimit="10"/>
		
			<path d="M 756.299988 1604.5 H 785.699987 V 1633.9 H 756.299988 V 1604.5 Z" fill="#FFFFFF" stroke="#00AEEF" stroke-width="9.4489" stroke-linejoin="round" stroke-miterlimit="10"/>
		<path d="M 640.799988 1467.900024 H 708.099991 V 1476.700025 H 640.799988 V 1467.900024 Z" fill="#00AEEF"/>
		<path d="M 636.900024 1506.699951 H 766.000031 V 1515.499951 H 636.900024 V 1506.699951 Z" fill="#00AEEF"/>
		<path d="M 636.900024 1527.5 H 766.000031 V 1536.3 H 636.900024 V 1527.5 Z" fill="#00AEEF"/>
		<path d="M 636.900024 1548.199951 H 766.000031 V 1556.999951 H 636.900024 V 1548.199951 Z" fill="#00AEEF"/>
		<path d="M 636.900024 1569.099976 H 766.000031 V 1577.899976 H 636.900024 V 1569.099976 Z" fill="#00AEEF"/>
	</g>
	
	
	
	
	
	<g transform="matrix(0.3096837273609146, 0, 0, 0.3096837273609146, 199.9033780367822, 158.08243696774096)">
		<path d="M 905.299973 431.700012 A 202.699997 202.699997 0 0 1 702.599976 634.400009 A 202.699997 202.699997 0 0 1 499.899979 431.700012 A 202.699997 202.699997 0 0 1 702.599976 229.000015 A 202.699997 202.699997 0 0 1 905.299973 431.700012 Z" fill="#81D4F7" transform="matrix(1, 0, 0, 1, -4.91400485067561, 2.842170943040401e-14)"/>
		<path fill="#A5DFF9" d="M874.9,431.7c0,95.2-77.2,172.4-172.4,172.4s-172.4-77.2-172.4-172.4c0-95.2,77.2-172.4,172.4-172.4&#10;&#9;&#9;&#9;S874.9,336.5,874.9,431.7z"/>
		<path fill="#C1E7FA" d="M701.2,259.3c-95.2,0-172.4,77.2-172.4,172.4c0,95.2,77.2,172.4,172.4,172.4V259.3z"/>
	<path d="M 658.1326904296875 611.4496459960938 L 289.5823059082031 333.808349609375" style="fill: rgb(129, 212, 247); fill-opacity: 1; stroke: rgb(0, 0, 0); stroke-opacity: 1; stroke-width: 0; paint-order: fill;"/></g>
	<g transform="matrix(0.3096837273609146, 0, 0, 0.3096837273609146, 199.9033780367822, 158.08243696774096)">
		<g>
			<g>
				
					<path d="M 582.299988 475.399994 H 660.899986 V 497.899994 H 582.299988 V 475.399994 Z" transform="matrix(-0.7352 -0.6778 0.6778 -0.7352 748.6147 1265.8221)" fill="#FFFFFF"/>
				<path fill="#00AEEF" d="M642.8,525.8c-1,0-2-0.4-2.8-1.1l-57.8-53.3c-0.8-0.8-1.3-1.8-1.3-2.9c0-1.1,0.4-2.2,1.1-3l15.3-16.5&#10;&#9;&#9;&#9;&#9;&#9;c0.8-0.8,1.8-1.3,2.9-1.3c1.1,0,2.2,0.4,3,1.1l57.8,53.3c1.7,1.6,1.8,4.2,0.2,5.9l-15.3,16.5&#10;&#9;&#9;&#9;&#9;&#9;C645.1,525.3,643.9,525.8,642.8,525.8z M591,468.1l51.6,47.6l9.6-10.4l-51.6-47.6L591,468.1z"/>
			</g>
			<g>
				<path fill="#FFFFFF" d="M813.4,388.8c-13.4-9.5-25.9,3.6-25.9,3.6c-0.7,0.9-31.1,49.9-31.1,49.9h-75.6l-22-20&#10;&#9;&#9;&#9;&#9;&#9;c0,0,30.2-0.3,31.6-0.3c6.1,0.1,9.8-3.6,9.9-9.7c0.1-6.1-3.2-9.9-9.3-9.9c-1.6,0-45.8-0.3-45.8-0.3l-41,45l57.9,52.2l26.9-28.1&#10;&#9;&#9;&#9;&#9;&#9;l85,0.6l46-70.3C820.1,401,818.8,392.6,813.4,388.8z"/>
				<path fill="#00AEEF" d="M662.2,503.4c-1,0-2-0.4-2.8-1.1l-57.9-52.2c-0.8-0.7-1.3-1.8-1.4-2.9c-0.1-1.1,0.3-2.2,1.1-3l41-45&#10;&#9;&#9;&#9;&#9;&#9;c0.8-0.9,2-1.4,3.1-1.4c1.8,0,44.3,0.3,45.9,0.3c4.1,0.1,7.6,1.5,10,4.1c2.3,2.5,3.5,6,3.4,10.1c-0.1,8.3-5.7,13.9-13.9,13.9&#10;&#9;&#9;&#9;&#9;&#9;l-0.4,0c-1.8,0-12.3,0.1-20.7,0.2l12.9,11.7h71.6c8.3-13.3,29.3-47.1,29.9-48.1c0.1-0.2,0.3-0.3,0.4-0.5&#10;&#9;&#9;&#9;&#9;&#9;c0.3-0.3,8.1-8.4,18.6-8.4c4.5,0,8.8,1.4,12.7,4.2c6.9,4.9,8.5,14.8,8.4,16.1c0,0.8-0.2,1.6-0.7,2.2l-46,70.3&#10;&#9;&#9;&#9;&#9;&#9;c-0.8,1.2-2.1,1.9-3.5,1.9l-83.2-0.6l-25.6,26.8C664.4,503,663.3,503.4,662.2,503.4z M610.3,446.8l51.7,46.6l24.1-25.2&#10;&#9;&#9;&#9;&#9;&#9;c0.8-0.8,1.9-1.3,3.1-1.3l82.7,0.6l43.8-67c-0.5-2.2-2-6.4-4.7-8.3c-2.6-1.8-5.1-2.7-7.9-2.7c-6.1,0-11.2,4.5-12.3,5.6&#10;&#9;&#9;&#9;&#9;&#9;c-2.2,3.5-22.8,36.5-30.8,49.4c-0.8,1.2-2.1,2-3.6,2h-75.6c-1,0-2-0.4-2.8-1.1l-22-20c-1.3-1.2-1.7-3-1.1-4.6&#10;&#9;&#9;&#9;&#9;&#9;c0.6-1.6,2.2-2.7,3.9-2.7c1.2,0,28.5-0.3,31.5-0.3l0.4,0c3.6,0,5.4-1.8,5.5-5.6c0-1.3-0.2-3.2-1.2-4.3c-0.8-0.9-2.1-1.3-3.9-1.4&#10;&#9;&#9;&#9;&#9;&#9;c-1.4,0-35.5-0.3-43.9-0.3L610.3,446.8z"/>
			</g>
		</g>
		<g>
			<path fill="#00AEEF" d="M770.7,359.3c0-9.7-7.9-17.5-17.5-17.5c-6,0-11.3,3-14.5,7.7c-3.2-4.6-8.5-7.7-14.5-7.7&#10;&#9;&#9;&#9;&#9;c-9.7,0-17.5,7.9-17.5,17.5c0,13.7,32,44.9,32,44.9S770.7,373,770.7,359.3z"/>
			<path fill="#00AEEF" d="M738.6,408.9c-1.2,0-2.3-0.4-3.2-1.3c-5.6-5.4-33.4-33.4-33.4-48.3c0-12.2,10-22.2,22.2-22.2&#10;&#9;&#9;&#9;&#9;c5.4,0,10.5,2,14.5,5.4c4-3.4,9.1-5.4,14.5-5.4c12.2,0,22.2,10,22.2,22.2c0,14.9-27.9,42.8-33.4,48.3&#10;&#9;&#9;&#9;&#9;C741,408.4,739.8,408.9,738.6,408.9z M724.1,346.4c-7.1,0-12.9,5.8-12.9,12.9c0,7.4,15.1,25.8,27.4,38.4&#10;&#9;&#9;&#9;&#9;c12.3-12.6,27.4-31,27.4-38.4c0-7.1-5.8-12.9-12.9-12.9c-4.3,0-8.3,2.1-10.7,5.6c-0.9,1.3-2.3,2-3.8,2c-1.5,0-3-0.8-3.8-2&#10;&#9;&#9;&#9;&#9;C732.4,348.5,728.4,346.4,724.1,346.4z"/>
		</g>
	</g>
	
	
</g>
</svg>